<svg width="256" height="256" viewBox="0 0 256 256" fill="none" xmlns="http://www.w3.org/2000/svg">
<circle cx="128" cy="128" r="128" fill="#222831"/>
<g clip-path="url(#clip0_15_16)">
<path d="M128.478 32C82.3789 32 45 69.6125 45 116C45 150.583 65.7838 180.275 95.4596 193.138C94.1627 185.356 93.1602 177.541 92.8517 171.331C74.8435 159.537 62.8882 139.175 62.8882 116C62.8882 79.6062 92.3106 50 128.478 50C164.646 50 194.068 79.6062 194.068 116C194.068 139.171 182.113 159.538 164.109 171.35C163.799 177.538 162.79 185.364 161.488 193.164C191.161 180.275 211.957 150.575 211.957 116C211.957 69.6125 174.578 32 128.478 32ZM128.478 149C116.225 149 104.627 152.234 104.627 165.406C104.627 177.83 109.427 204.519 112.312 215.206C114.242 222.35 121.435 224 128.478 224C135.522 224 142.733 222.359 144.645 215.232C147.522 204.462 152.329 177.8 152.329 165.425C152.329 152.225 140.739 149 128.478 149ZM128.478 137C140.012 137 149.348 127.606 149.348 116C149.348 104.394 139.696 95 128.478 95C117.261 95 107.609 104.375 107.609 116C107.609 127.625 116.925 137 128.478 137ZM182.143 116C182.143 86.1763 158.117 62 128.478 62C98.8398 62 74.8137 86.1875 74.8137 116C74.8137 132.811 82.6099 147.642 94.5801 157.55C96.3902 152.806 99.846 147.845 106.524 144.41C106.528 144.388 106.64 144.388 106.714 144.388C98.2547 137.788 92.7019 127.587 92.7019 116C92.7019 96.1175 108.719 80 128.478 80C148.237 80 164.255 96.1175 164.255 116C164.255 127.595 158.713 137.799 150.253 144.38C150.302 144.39 150.443 144.398 150.43 144.408C157.112 147.843 160.563 152.8 162.374 157.548C174.354 147.65 182.143 132.8 182.143 116Z" fill="#C9C9C9"/>
</g>
<defs>
<clipPath id="clip0_15_16">
<rect width="166.957" height="192" fill="white" transform="translate(45 32)"/>
</clipPath>
</defs>
</svg>
