<svg width="512" height="512" viewBox="0 0 512 512" fill="none" xmlns="http://www.w3.org/2000/svg">
<path d="M171.836 282.367V245.795C171.836 240.873 173.374 236.828 176.45 233.661C179.686 230.357 183.901 228.705 189.097 228.705C193.791 228.705 197.79 230.357 201.094 233.661C201.914 234.481 202.529 235.279 202.939 236.054C203.464 235.256 204.102 234.493 204.854 233.764C208.294 230.391 212.271 228.705 216.782 228.705C221.886 228.705 226.102 230.357 229.429 233.661C232.505 236.715 234.043 240.759 234.043 245.795V279.291L227.549 282.367H227.207V245.795C227.207 242.742 226.387 240.269 224.746 238.378C222.718 236.031 220.063 234.857 216.782 234.857C213.501 234.857 210.846 236.031 208.818 238.378C207.178 240.269 206.357 242.742 206.357 245.795V279.291L199.863 282.367H199.521V245.795C199.521 242.742 198.701 240.269 197.061 238.378C195.033 236.031 192.378 234.857 189.097 234.857C185.815 234.857 183.161 236.031 181.133 238.378C179.492 240.269 178.672 242.742 178.672 245.795V279.291L172.178 282.367H171.836ZM254.551 264.594C254.551 267.647 255.371 270.119 257.012 272.011C259.04 274.358 261.694 275.531 264.976 275.531C268.257 275.531 270.911 274.358 272.939 272.011C274.58 270.119 275.4 267.647 275.4 264.594V245.795C275.4 242.742 274.58 240.269 272.939 238.378C270.911 236.031 268.257 234.857 264.976 234.857C261.694 234.857 259.04 236.031 257.012 238.378C255.371 240.269 254.551 242.742 254.551 245.795V264.594ZM247.715 264.594V245.795C247.715 240.85 249.253 236.806 252.329 233.661C255.565 230.357 259.78 228.705 264.976 228.705C270.171 228.705 274.386 230.357 277.622 233.661C280.698 236.783 282.236 240.827 282.236 245.795V264.594C282.236 269.538 280.698 273.583 277.622 276.728C274.386 280.032 270.171 281.684 264.976 281.684C259.78 281.684 255.565 280.032 252.329 276.728C249.253 273.583 247.715 269.538 247.715 264.594ZM302.744 264.594C302.744 267.647 303.564 270.119 305.205 272.011C307.233 274.358 309.888 275.531 313.169 275.531C316.45 275.531 319.105 274.358 321.133 272.011C322.773 270.119 323.594 267.647 323.594 264.594V245.795C323.594 242.742 322.773 240.269 321.133 238.378C319.105 236.031 316.45 234.857 313.169 234.857C309.888 234.857 307.233 236.031 305.205 238.378C303.564 240.269 302.744 242.742 302.744 245.795V264.594ZM295.908 264.594V245.795C295.908 240.85 297.446 236.806 300.522 233.661C303.758 230.357 307.974 228.705 313.169 228.705C318.364 228.705 322.58 230.357 325.815 233.661C328.892 236.783 330.43 240.827 330.43 245.795V264.594C330.43 269.538 328.892 273.583 325.815 276.728C322.58 280.032 318.364 281.684 313.169 281.684C307.974 281.684 303.758 280.032 300.522 276.728C297.446 273.583 295.908 269.538 295.908 264.594ZM344.102 281V231.098L347.725 229.389H360.679C365.874 229.389 370.09 231.041 373.325 234.345C376.401 237.466 377.939 241.511 377.939 246.479V263.91C377.939 268.855 376.401 272.899 373.325 276.044C370.09 279.348 365.874 281 360.679 281H344.102ZM350.938 274.848H360.679C363.96 274.848 366.615 273.674 368.643 271.327C370.283 269.436 371.104 266.964 371.104 263.91V246.479C371.104 243.425 370.283 240.953 368.643 239.062C366.615 236.715 363.96 235.541 360.679 235.541H350.938V274.848ZM391.611 281V231.098L395.234 229.389H416.904V229.73L414.136 235.609H398.447V252.084H416.904V252.426L414.136 258.305H398.447V274.779H422.612V275.121L419.844 281H391.611ZM431.191 281V231.098L434.814 229.389H456.484V229.73L453.716 235.609H438.027V252.084H456.484V252.426L453.716 258.305H438.027V274.779H462.192V275.121L459.424 281H431.191Z" fill="black"/>
<rect x="5" y="5" width="502" height="502" rx="80" stroke="black" stroke-width="10"/>
</svg>
